<?xml version="1.0" encoding="utf-8"?>
<!-- Generator: Adobe Illustrator 25.2.1, SVG Export Plug-In . SVG Version: 6.00 Build 0)  -->
<svg version="1.1" id="Camada_1" xmlns="http://www.w3.org/2000/svg" xmlns:xlink="http://www.w3.org/1999/xlink" x="0px" y="0px"
	 viewBox="0 0 1080 1080" style="enable-background:new 0 0 1080 1080;" xml:space="preserve">
<g>
	<g>
		<path d="M967.24,1074.18c-26.17-9.2-45.71-27.29-64.76-46.55c-44.6-45.12-89.56-89.91-134.96-134.23
			c-9.28-9.06-10.66-14.2-0.46-23.96c35.29-33.79,70.01-68.22,103.84-103.45c10.64-11.08,16.23-8.71,25.62,0.81
			c46.09,46.73,90.66,95.28,139.89,138.52c60.96,53.54,54.1,138.38-29.66,168.87C993.59,1074.18,980.41,1074.18,967.24,1074.18z"/>
		<path d="M453.51,6.87C699.75,6.8,901.76,206.86,901.52,450.56c-0.24,248.32-200.07,448.49-447.84,448.6
			C205.96,899.27,5.76,698.89,5.65,450.72C5.54,206.78,207.18,6.95,453.51,6.87z M98.31,453.51
			c0.3,193.93,160.81,353.53,355.37,353.37c194.73-0.15,355.06-159.77,355.17-353.6C808.97,258.05,648.18,98.3,452.38,99.14
			C257.07,99.97,98.01,259.17,98.31,453.51z"/>
	</g>
</g>
</svg>
