<?xml version="1.0" encoding="utf-8"?>
<!-- Generator: Adobe Illustrator 25.2.1, SVG Export Plug-In . SVG Version: 6.00 Build 0)  -->
<svg version="1.1" id="Camada_1" xmlns="http://www.w3.org/2000/svg" xmlns:xlink="http://www.w3.org/1999/xlink" x="0px" y="0px"
	 viewBox="0 0 680.88 279.29" style="enable-background:new 0 0 680.88 279.29;" xml:space="preserve">
<style type="text/css">
	.st0{fill:none;stroke:#000000;stroke-width:0.3;}
</style>
<g>
	<g>
		<path d="M435.96,0.48c3.48,0.82,7.09,0.91,10.55,1.92c7.94,2.31,14.08,6.5,16.15,15.06c0.57,2.34,0.76,4.73,0.74,7.15
			c-0.04,4.24-0.01,8.49-0.01,12.73c-0.01,13.13-6.65,20.79-19.63,22.74c-6.54,0.98-13.11,0.74-19.68,0.64c-1.28-0.02-2.56,0-4.46,0
			c13.8,16.72,29.25,31.4,43.3,47.38c-0.77,0.68-1.44,0.44-2.04,0.44c-11.79,0.02-23.58-0.01-35.36,0.04
			c-1.76,0.01-2.96-0.62-4.13-1.93c-10.92-12.15-21.91-24.25-32.89-36.35c-0.43-0.48-0.83-1.41-1.7-0.94
			c-0.7,0.38-0.62,1.25-0.62,1.96c0.04,10.32,0.03,20.65,0.17,30.97c0.07,5.83-0.61,6.65-6.39,6.26
			c-5.44-0.37-10.84-0.99-15.94-3.17c-8.48-3.63-12.65-9.86-12.66-19.08c-0.03-20.11-0.05-40.21-0.08-60.32
			c-0.01-7.13-0.01-14.26-0.1-21.39c-0.03-1.99,0.62-3.39,2.51-4.12C381.1,0.48,408.53,0.48,435.96,0.48z M405.4,37.57
			c0-0.03,0-0.06,0-0.09c5.44,0,10.89,0.09,16.33-0.03c4.44-0.1,6.71-2.24,6.82-6.09c0.14-4.74-1.93-7.09-6.92-7.21
			c-8-0.19-16.01-0.14-24.02-0.17c-2.4-0.01-4.81-0.04-7.2,0.12c-3.18,0.21-4.25,1.34-4.4,4.51c-0.08,1.67-0.05,3.36,0.08,5.03
			c0.28,3.73,0.52,3.92,4.18,3.92C395.32,37.58,400.36,37.57,405.4,37.57z"/>
		<path d="M680.65,125.77c0,38.05,0,76.11,0,114.16c0,4.83-0.57,9.59-2.22,14.16c-4.31,11.91-13.46,18.38-25.13,21.71
			c-7.86,2.24-15.85,3.54-24.14,3.49c-31.92-0.19-63.84,0.37-95.75-0.31c-11.95-0.25-23.91-2.95-33.54-11.27
			c-7.44-6.43-11.26-14.61-11.53-24.42c-0.08-3.12,0.78-4.07,3.93-4.1c8.02-0.08,16.04-0.03,24.06-0.01c1.44,0,2.88,0.13,4.32,0.13
			c27.67,0.01,55.33,0.01,83-0.01c3.04,0,6.09-0.14,9.08-0.79c5.43-1.19,7.86-3.91,8.01-9.5c0.16-5.76,0.06-11.52,0.06-17.29
			c0-31.56,0-63.12,0-94.69c0-0.96,0-1.92-0.06-2.88c-0.12-1.94-1.16-3.11-3.1-3.37c-0.87-0.12-1.76-0.13-2.64-0.13
			c-26.3-0.03-52.61,0-78.91-0.11c-10.71-0.05-21.03-2.17-30.59-7.15c-11.35-5.91-17.1-15.4-17.16-28.15
			c-0.1-22.91-0.03-45.82-0.02-68.74c0-3.08,0.74-3.84,3.86-3.84c6.49,0.01,12.99,0.14,19.48,0.14c10.5-0.01,21.01-0.11,31.51-0.15
			c3.98-0.01,4.82,0.81,4.81,4.77c-0.04,12.66-0.12,25.31-0.14,37.97c-0.01,6.09,0.07,12.17,0.16,18.26
			c0.08,5.25,1.98,7.36,7.28,7.39c19.73,0.12,39.45,0.09,59.18,0.11c6.56,0.01,6.67-0.11,6.67-6.72c0-15.78,0.01-31.56-0.01-47.35
			c0-3.04-0.15-6.08-0.14-9.12c0.01-4.41,1.2-5.52,5.6-5.47c11.14,0.12,22.28,0.25,33.43,0.31c5.45,0.03,10.9-0.12,16.35-0.14
			c3.45-0.01,4.42,0.83,4.42,4.16c-0.01,19.62-0.1,39.25-0.12,58.87C680.63,85.72,680.65,105.74,680.65,125.77z"/>
		<path d="M0.88,141.67c0-32.68,0.01-65.37-0.01-98.05c0-6.64,0.96-13.09,3.69-19.18C9.5,13.48,18.52,7.65,29.8,4.86
			c7.66-1.89,15.5-2.48,23.37-2.52c21.41-0.11,42.81-0.26,64.22-0.12c9.76,0.06,19.57-0.23,29.28,1.16
			c6.55,0.94,12.82,2.86,18.66,5.98c10.51,5.61,16.11,14.56,17.46,26.25c0.46,3.97,0.87,7.96,0.99,11.96
			c0.16,5.5-1.97,7.69-7.37,7.18c-13.28-1.28-26.59-0.21-39.88-0.64c-2.8-0.09-5.61,0.15-8.41,0.12c-3.33-0.04-4.04-0.73-4.46-3.99
			c-0.65-4.94-4.31-8.24-9.86-8.36c-14.5-0.31-29.01-0.38-43.52,0.01c-6.11,0.16-9.76,3.95-10.05,10.35
			c-0.24,5.27-0.16,10.57-0.13,15.85c0.01,2.43,1.25,3.47,4.16,3.53c4.01,0.08,8.02,0.02,12.03,0.02c32.55,0,65.11,0,97.66,0
			c1.36,0,2.73-0.03,4.09-0.08c3.88-0.15,4.42,0.37,4.42,4.34c0,9.21,0,18.42,0,27.63c0,0.4,0,0.8,0,1.2
			c0.08,6.19-0.45,6.74-6.58,6.73c-30.47-0.05-60.94-0.13-91.4-0.14c-6.41,0-12.81,0.33-19.22-0.15c-3.57-0.27-5.07,1.28-5.08,5.06
			c-0.03,8.33,0.06,16.66,0.06,24.99c0.01,38.61,0.01,77.22,0,115.83c0,6.73-0.15,13.45-0.12,20.18c0.01,1.6-0.52,1.95-2.06,2.04
			c-9.52,0.52-18.86-0.64-28.08-2.87c-5.82-1.41-11.24-3.78-16.04-7.38c-9.44-7.08-13.02-16.92-13.03-28.32
			C0.86,207.68,0.88,174.67,0.88,141.67z"/>
		<path d="M207.31,45.92c0-12.97-0.01-25.95,0-38.92c0-3.78,0.41-4.17,4.11-4.19c9.54-0.05,19.07-0.1,28.61-0.16
			c4.03-0.03,4.89,0.83,4.89,4.94c0,22.26,0,44.53,0,66.79c0,7.68,1.48,9.23,9.05,9.26c9.38,0.04,18.76,0.03,28.14,0
			c6.48-0.02,8.28-1.82,8.28-8.33c0.02-22.35,0.01-44.69,0.01-67.04c0-4.91,1.02-5.83,6-5.62c8.57,0.36,17.14,0.35,25.71,0
			c4.94-0.2,6,0.77,5.98,5.68c-0.02,3.76-0.15,7.52-0.14,11.28c0.03,18.9,0.15,37.8,0.11,56.7c-0.01,4.23,0.08,8.47-0.68,12.68
			c-1.63,9.05-7.04,14.62-15.68,17.29c-5.33,1.65-10.83,2.24-16.37,2.26c-18.92,0.07-37.84,0.06-56.76,0.01
			c-5.56-0.02-11.02-0.91-16.26-2.8c-9.99-3.6-14.75-10.27-14.81-20.9c-0.07-12.97-0.02-25.95-0.02-38.92
			C207.42,45.92,207.37,45.92,207.31,45.92z"/>
		<path d="M523.67,214.39c-14.35,0-28.7,0-43.05,0c-4.16,0-4.91-1.03-3.64-4.92c2.41-7.33,8.42-11.18,17.69-11.18
			c18.44,0.01,36.88,0.1,55.32,0.14c0.96,0,1.91-0.09,2.87-0.2c1.8-0.2,2.76-1.33,2.85-3.03c0.16-3.04,0.24-6.08-0.37-9.1
			c-0.36-1.78-1.39-2.77-3.18-3.14c-1.43-0.29-2.86-0.31-4.3-0.31c-22.29,0-44.58,0-66.87,0c-3.91,0-4.67-0.74-4.67-4.57
			c-0.01-12.81-0.01-25.63,0-38.44c0-3.95,0.67-4.58,4.61-4.58c28.79-0.01,57.57-0.02,86.36-0.03c4.23,0,5.16,1.31,3.74,5.34
			c-2.17,6.15-7.77,10.27-14.69,10.55c-11.46,0.48-22.92-0.02-34.38,0.08c-8.34,0.07-16.68,0.01-25.02,0.02
			c-3.69,0.01-4.59,0.86-4.57,4.5c0.01,2.48-0.18,4.95,0.31,7.42c0.41,2.01,1.58,3.08,3.54,3.35c1.03,0.14,2.07,0.24,3.11,0.25
			c16.51,0.07,33.03,0.14,49.54,0.16c6.09,0.01,12.18-0.13,18.27-0.14c3.78-0.01,4.82,1.16,4.74,4.94
			c-0.29,12.57-0.36,25.14,0.03,37.71c0.13,4.12-0.83,5.17-4.93,5.17C552.53,214.4,538.1,214.39,523.67,214.39z"/>
		<path d="M301.07,214.39c-9.7,0-19.41-0.01-29.11,0c-2.9,0-5.78-0.17-8.55-1.08c-6.27-2.08-10.16-7.46-10.27-14.72
			c-0.15-9.53-0.04-19.06-0.09-28.6c-0.01-2.16,0.91-3.34,3.1-3.4c2.56-0.08,5.13-0.26,7.69-0.13c3.71,0.19,5.02,1.52,5.16,5.24
			c0.17,4.64,0.17,9.28,0.23,13.93c0.01,1.04-0.01,2.08,0,3.12c0.07,7.07,2.51,9.52,9.62,9.53c20.85,0.02,41.7,0,62.55,0.01
			c1.36,0,2.73,0.07,4.08,0.19c2.79,0.26,3.56,1.38,2.81,3.98c-1.96,6.86-7.8,11.69-14.99,11.82c-10.74,0.19-21.49,0.05-32.23,0.05
			C301.07,214.35,301.07,214.37,301.07,214.39z"/>
		<path d="M204.86,135.08c-0.31,1.16-1.11,1.62-1.69,2.21c-10.47,10.48-20.95,20.95-31.43,31.42c-5.3,5.3-5.3,6.51,0.08,11.87
			c10.38,10.35,20.77,20.69,31.17,31.02c0.73,0.73,1.65,1.26,2.28,1.74c-0.48,1.21-1.04,0.97-1.46,0.97
			c-6.81,0.02-13.62,0-20.44,0.03c-1.36,0.01-2.44-0.35-3.43-1.35c-11.66-11.68-23.34-23.32-35.02-34.97
			c-2.99-2.99-3-3.67-0.03-6.63c11.29-11.25,22.61-22.47,33.87-33.76c1.75-1.75,3.58-2.65,6.14-2.59
			C191.5,135.18,198.12,135.08,204.86,135.08z"/>
		<path d="M459.38,214.31c-3.41,0-6.74-0.01-10.07,0c-3.53,0.01-7.06-0.03-10.58,0.11c-2.1,0.08-3.65-0.67-5.1-2.13
			c-10.64-10.66-21.33-21.28-32-31.9c-1.08-1.07-2.23-2.08-3.27-3.18c-1.91-2.04-1.94-3.12,0.03-5.12
			c3.32-3.37,6.73-6.64,10.09-9.96c8.25-8.18,16.51-16.35,24.7-24.59c1.7-1.71,3.5-2.55,5.95-2.49c5.53,0.13,11.06,0.01,16.59,0.07
			c0.77,0.01,1.95-0.61,2.29,0.53c0.29,0.96-0.45,1.81-1.15,2.51c-3.13,3.1-6.26,6.19-9.4,9.29c-8.15,8.05-16.3,16.11-24.45,24.16
			c-2.49,2.46-2.47,3.66,0.08,6.19c11.6,11.51,23.2,23.03,34.79,34.56C458.41,212.87,459.14,213.29,459.38,214.31z"/>
		<path d="M301.96,135c14.03,0,28.05,0,42.08,0c4.22,0,5.22,1.45,3.69,5.36c-2.6,6.66-7.55,10.27-14.64,10.53
			c-6.88,0.25-13.78,0.12-20.68,0.12c-14.11,0.01-28.22-0.01-42.33,0.01c-4.17,0.01-8.33,0.16-12.5,0.13
			c-3.66-0.03-4.54-0.97-4.56-4.58c-0.01-1.92,0.01-3.84,0.1-5.76c0.2-4.17,1.41-5.39,5.54-5.65c1.12-0.07,2.24-0.08,3.36-0.08
			c13.31-0.01,26.61,0,39.92,0C301.96,135.05,301.96,135.03,301.96,135z"/>
		<path d="M126.07,175.92c0,11.37,0,22.73,0,34.1c0,3.53-0.91,4.5-4.38,4.41c-2.56-0.07-5.12,0.1-7.67-0.35
			c-2.44-0.43-3.64-1.84-3.82-4.21c-0.12-1.59-0.23-3.19-0.24-4.79c-0.02-20.89-0.02-41.78,0.01-62.67c0-1.59-0.33-3.17-0.02-4.78
			c0.3-1.57,1.14-2.49,2.72-2.51c2.96-0.05,5.93-0.1,8.89,0.03c2.34,0.11,3.92,1.33,4.15,3.83c0.16,1.67,0.35,3.34,0.35,5.02
			C126.09,154.63,126.07,165.28,126.07,175.92z"/>
		<path d="M221.91,174.27c0-11.21,0-22.41,0-33.62c0-4.91,0.84-5.77,5.73-5.64c2.24,0.06,4.48-0.09,6.71,0.35
			c1.97,0.39,3.09,1.46,3.47,3.45c0.34,1.83,0.36,3.66,0.37,5.5c0.03,21.85,0.05,43.71,0.08,65.56c0,3.58-0.91,4.52-4.58,4.51
			c-2.48-0.01-4.96,0.1-7.44-0.27c-2.55-0.38-3.84-1.8-3.96-4.31c-0.11-2.16-0.21-4.31-0.22-6.47c-0.02-9.69-0.01-19.37-0.01-29.06
			C222.01,174.27,221.96,174.27,221.91,174.27z"/>
		<path d="M380.38,175.59c0,10.65-0.01,21.29,0,31.94c0.01,6.82-0.02,6.88-6.74,6.85c-1.68-0.01-3.36-0.07-5.03-0.22
			c-2.51-0.23-3.91-1.67-4.17-4.17c-0.11-1.03-0.17-2.07-0.17-3.11c-0.04-22.26-0.06-44.51-0.09-66.77c0-4.39,0.74-5.13,5.19-5.11
			c2.08,0.01,4.18-0.01,6.24,0.23c3.25,0.38,4.29,1.56,4.52,4.82c0.1,1.43,0.09,2.88,0.09,4.32c0.01,10.41,0,20.82,0,31.22
			C380.27,175.59,380.33,175.59,380.38,175.59z"/>
	</g>
</g>
<g>
	<line class="st0" x1="0" y1="-54" x2="0" y2="-18"/>
	<line class="st0" x1="-54" y1="0" x2="-18" y2="0"/>
	<line class="st0" x1="-54" y1="279.37" x2="-18" y2="279.37"/>
	<line class="st0" x1="0" y1="333.37" x2="0" y2="297.37"/>
	<line class="st0" x1="680.88" y1="-54" x2="680.88" y2="-18"/>
	<line class="st0" x1="734.88" y1="0" x2="698.88" y2="0"/>
	<line class="st0" x1="734.88" y1="279.37" x2="698.88" y2="279.37"/>
	<line class="st0" x1="680.88" y1="333.37" x2="680.88" y2="297.37"/>
</g>
</svg>
